<!DOCTYPE svg PUBLIC "-//W3C//DTD SVG 1.1//EN" "http://www.w3.org/Graphics/SVG/1.1/DTD/svg11.dtd">
<!-- Uploaded to: SVG Repo, www.svgrepo.com, Transformed by: SVG Repo Mixer Tools -->
<svg version="1.1" id="Layer_1" xmlns="http://www.w3.org/2000/svg" xmlns:xlink="http://www.w3.org/1999/xlink" viewBox="0 0 512 512" xml:space="preserve" width="800px" height="800px" fill="#000000">
<g id="SVGRepo_bgCarrier" stroke-width="0"/>
<g id="SVGRepo_tracerCarrier" stroke-linecap="round" stroke-linejoin="round"/>
<g id="SVGRepo_iconCarrier"> <path style="fill:#71B3DE;" d="M495.215,0H16.785C7.515,0,0,7.515,0,16.785v478.431C0,504.485,7.515,512,16.785,512h478.431 c9.27,0,16.785-7.515,16.785-16.785V16.785C512,7.515,504.485,0,495.215,0z"/> <path style="fill:#99CFF2;" d="M256,0H16.785C7.515,0,0,7.515,0,16.785v478.431C0,504.485,7.515,512,16.785,512H256V0z"/> <path style="fill:#1e5794;" d="M495.215,0H16.785C7.515,0,0,7.515,0,16.785v77.856h512V16.785C512,7.515,504.485,0,495.215,0z"/> <path style="fill:#2a7fc0;" d="M256,0H16.785C7.515,0,0,7.515,0,16.785v77.856h256V0z"/> <circle style="fill:#1e5794;" cx="57.951" cy="51.246" r="25.489"/> <circle style="fill:#CCEAED;" cx="129.421" cy="51.246" r="25.489"/> <circle style="fill:#00B59F;" cx="200.901" cy="51.246" r="25.489"/> <path style="fill:#f28245;" d="M448.166,299.578c2.362,2.362,2.362,6.192,0,8.555l-15.998,15.998c-2.362,2.362-6.192,2.362-8.555,0 l-70.639-70.639l24.553-24.553L448.166,299.578z"/> <g> <path style="fill:#31678A;" d="M233.199,289.841H73.185c-6.142,0-11.122-4.979-11.122-11.122v-87.416 c0-6.142,4.979-11.122,11.122-11.122h160.014c6.142,0,11.122,4.979,11.122,11.122v87.416 C244.32,284.862,239.341,289.841,233.199,289.841z"/> <path style="fill:#31678A;" d="M233.199,442.276H73.185c-6.142,0-11.122-4.979-11.122-11.122v-87.416 c0-6.142,4.979-11.122,11.122-11.122h160.014c6.142,0,11.122,4.979,11.122,11.122v87.416 C244.32,437.297,239.341,442.276,233.199,442.276z"/> </g> <g> <path style="fill:#0C3A57;" d="M444.753,443.141H308.237c-9.27,0-16.785-7.515-16.785-16.785c0-9.27,7.515-16.785,16.785-16.785 h136.515c9.27,0,16.785,7.515,16.785,16.785C461.537,435.626,454.022,443.141,444.753,443.141z"/> <path style="fill:#0C3A57;" d="M384.328,383.836h-76.091c-9.27,0-16.785-7.515-16.785-16.785s7.515-16.785,16.785-16.785h76.091 c9.27,0,16.785,7.515,16.785,16.785S393.598,383.836,384.328,383.836z"/> </g> <g> <path style="fill:#3A7AA3;" d="M153.192,180.181H73.185c-6.142,0-11.122,4.979-11.122,11.122v87.417 c0,6.142,4.979,11.122,11.122,11.122h80.007V180.181z"/> <path style="fill:#3A7AA3;" d="M153.192,332.617H73.185c-6.142,0-11.122,4.979-11.122,11.122v87.416 c0,6.143,4.979,11.122,11.122,11.122h80.007V332.617z"/> </g> <g> <path style="fill:#0F476B;" d="M376.495,409.572h-68.258c-9.27,0-16.785,7.515-16.785,16.785c0,9.27,7.515,16.785,16.785,16.785 h68.258V409.572z"/> <path style="fill:#0F476B;" d="M346.283,350.266h-38.045c-9.27,0-16.785,7.515-16.785,16.785s7.515,16.785,16.785,16.785h38.045 V350.266z"/> </g> <rect y="94.643" style="fill:#5D9AC2;" width="512" height="35.246"/> <rect y="94.643" style="fill:#75ADD1;" width="256" height="35.247"/> <path style="fill:#FFFFFF;" d="M377.095,253.06l-22.889,44.918c-1.319,2.589-4.081,4.117-6.976,3.858 c-2.895-0.258-5.341-2.251-6.18-5.034l-30.615-101.532c-0.756-2.51-0.073-5.233,1.781-7.088s4.577-2.539,7.088-1.781l101.532,30.615 c2.783,0.839,4.776,3.285,5.034,6.18c0.258,2.895-1.268,5.656-3.858,6.976L377.095,253.06z"/> </g>
</svg>