<?xml version="1.0" encoding="iso-8859-1"?>
<!-- Uploaded to: SVG Repo, www.svgrepo.com, Generator: SVG Repo Mixer Tools -->
<svg height="800px" width="800px" version="1.1" id="Layer_1" xmlns="http://www.w3.org/2000/svg" xmlns:xlink="http://www.w3.org/1999/xlink" 
	 viewBox="0 0 512 512" xml:space="preserve">
<path style="fill:#ACACB2;" d="M175.382,512h236.843c17.611,0,31.885-14.276,31.885-31.885V31.887
	C444.111,14.276,429.835,0,412.226,0H99.776C82.166,0,67.89,14.276,67.89,31.885v372.623h87.805
	c10.873,0,19.687,8.814,19.687,19.687L175.382,512z"/>
<path d="M175.382,512L175.382,512L175.382,512z"/>
<path style="fill:#E1E1E3;" d="M257.48,512V0H99.776C82.166,0,67.89,14.276,67.89,31.885v372.623h87.805
	c10.873,0,19.687,8.814,19.687,19.687V512L257.48,512L257.48,512z"/>
<g>
	<path style="fill:#3B4E56;" d="M357.203,261.641H154.798c-8.28,0-14.993-6.713-14.993-14.993s6.713-14.993,14.993-14.993h202.405
		c8.28,0,14.993,6.713,14.993,14.993S365.483,261.641,357.203,261.641z"/>
	<path style="fill:#3B4E56;" d="M357.203,326.114H154.798c-8.28,0-14.993-6.713-14.993-14.993s6.713-14.993,14.993-14.993h202.405
		c8.28,0,14.993,6.713,14.993,14.993S365.483,326.114,357.203,326.114z"/>
</g>
<g>
	<path style="fill:#4F6873;" d="M257.287,231.654H154.798c-8.28,0-14.993,6.713-14.993,14.993s6.713,14.993,14.993,14.993h102.489
		V231.654z"/>
	<path style="fill:#4F6873;" d="M257.287,296.127H154.798c-8.28,0-14.993,6.713-14.993,14.993s6.713,14.993,14.993,14.993h102.489
		V296.127z"/>
</g>
<path style="fill:#3B4E56;" d="M175.382,512v-87.805c0-10.873-8.814-19.687-19.687-19.687H67.89L175.382,512L175.382,512z"/>
<path style="fill:#005A95;" d="M329.381,181.038H185.579c-8.243,0-14.925-6.683-14.925-14.925v-63.257
	c0-8.243,6.683-14.925,14.925-14.925h143.803c8.243,0,14.925,6.683,14.925,14.925v63.257
	C344.307,174.356,337.625,181.038,329.381,181.038z"/>
<path style="fill:#31AAEF;" d="M257.48,87.93h-72.048c-8.162,0-14.779,6.617-14.779,14.78v63.55c0,8.162,6.617,14.779,14.779,14.779
	h72.048V87.93z"/>
</svg>