<?xml version="1.0" encoding="iso-8859-1"?>
<!-- Uploaded to: SVG Repo, www.svgrepo.com, Generator: SVG Repo Mixer Tools -->
<svg height="800px" width="800px" version="1.1" id="Layer_1" xmlns="http://www.w3.org/2000/svg" xmlns:xlink="http://www.w3.org/1999/xlink" 
	 viewBox="0 0 511.999 511.999" xml:space="preserve">
<path style="fill:#004573;" d="M486.589,5.633H25.41C11.376,5.633,0,17.01,0,31.043v316.461c0,4.314,3.497,7.812,7.812,7.812
	h496.375c4.314,0,7.812-3.497,7.812-7.812V31.043C512,17.01,500.623,5.633,486.589,5.633z"/>
<path style="fill:#005A95;" d="M256,5.633H31.11C13.928,5.633,0,19.562,0,36.743v309.009c0,5.282,4.282,9.564,9.564,9.564H256V5.633
	z"/>
<path style="fill:#ACACB2;" d="M444.592,73.069H67.408c-4.962,0-8.984,4.023-8.984,8.984v212.652h395.153V82.053
	C453.576,77.092,449.554,73.069,444.592,73.069z"/>
<path style="fill:#E1E1E3;" d="M256,73.069H69.422c-6.075,0-11,4.924-11,11v210.638h197.576V73.069H256z"/>
<path style="fill:#005A95;" d="M204.296,147.328c-8.648,0-16.516,4.998-20.193,12.827l-26.894,57.28H22.307
	C9.987,217.436,0,227.423,0,239.743v244.315c0,12.319,9.987,22.307,22.307,22.307h467.385c12.319,0,22.307-9.987,22.307-22.307
	V169.635c0-12.319-9.987-22.307-22.307-22.307H204.296z"/>
<path style="fill:#31AAEF;" d="M256,147.328h-51.703c-8.648,0-16.516,4.998-20.193,12.827l-26.894,57.282H22.307
	C9.987,217.436,0,227.423,0,239.743v244.315c0,12.319,9.987,22.307,22.307,22.307H256V147.328z"/>
</svg>