<?xml version="1.0" encoding="iso-8859-1"?>
<!-- Uploaded to: SVG Repo, www.svgrepo.com, Generator: SVG Repo Mixer Tools -->
<svg version="1.1" id="Layer_1" xmlns="http://www.w3.org/2000/svg" xmlns:xlink="http://www.w3.org/1999/xlink" 
	 viewBox="0 0 512 512" xml:space="preserve">
<rect x="81.114" y="73.189" style="fill:#1D1D1F;" width="349.746" height="230.531"/>
<rect x="81.114" y="73.189" style="fill:#3E3E42;" width="173.062" height="230.531"/>
<path style="fill:#607887;" d="M436.139,343.603H75.861c-13.845,0-25.069-11.223-25.069-25.069V92.392
	c0-28.426,23.126-51.552,51.551-51.552h307.312c28.426,0,51.551,23.127,51.551,51.552v226.142
	C461.208,332.378,449.984,343.603,436.139,343.603z M100.93,293.465h310.14V92.392c0-0.78-0.634-1.415-1.414-1.415H102.343
	c-0.78,0-1.414,0.634-1.414,1.415C100.93,92.392,100.93,293.465,100.93,293.465z"/>
<path style="fill:#00558A;" d="M477.265,377.692H34.735C15.583,377.692,0,393.275,0,412.429v23.997
	c0,19.152,15.583,34.735,34.735,34.735h442.53c19.152,0,34.735-15.582,34.735-34.735v-23.997
	C512,393.275,496.417,377.692,477.265,377.692z"/>
<g>
	<path style="fill:#A9BEC9;" d="M338.152,234.647l-54.717-54.717l29.888-15.229c2.701-1.376,4.294-4.257,4.024-7.277
		s-2.349-5.571-5.251-6.447l-105.908-31.935c-2.618-0.789-5.459-0.076-7.392,1.858c-1.934,1.934-2.648,4.774-1.858,7.392
		L228.873,234.2c0.876,2.902,3.427,4.981,6.447,5.251c3.019,0.27,5.899-1.324,7.277-4.024l15.229-29.887l54.718,54.718
		c3.816,3.816,10.004,3.816,13.82,0l11.791-11.791C341.969,244.651,341.969,238.464,338.152,234.647z"/>
	<path style="fill:#A9BEC9;" d="M253.706,293.465H100.93V92.392c0-0.78,0.634-1.415,1.414-1.415h151.362V40.84H102.343
		c-28.426,0-51.551,23.127-51.551,51.552v226.142c0,13.846,11.224,25.069,25.069,25.069h177.844v-50.137H253.706z"/>
</g>
<path style="fill:#0066A6;" d="M253.706,377.692H34.735C15.583,377.692,0,393.275,0,412.429v23.997
	c0,19.152,15.583,34.735,34.735,34.735h218.971V377.692z"/>
<path style="fill:#007BC7;" d="M195.494,377.692l5.085,28.603c1.128,6.341,6.64,10.961,13.081,10.961h84.678
	c6.441,0,11.954-4.619,13.081-10.961l5.085-28.603H195.494z"/>
<path style="fill:#4EA4D9;" d="M254.192,377.692h-58.698l5.085,28.603c1.128,6.341,6.64,10.961,13.081,10.961h40.532V377.692z"/>
<path style="fill:#FFFFFF;" d="M198.794,120.9c-1.934,1.934-2.648,4.774-1.858,7.392L228.871,234.2
	c0.876,2.902,3.427,4.981,6.447,5.251c3.019,0.27,5.899-1.323,7.277-4.024l15.229-29.887l54.719,54.718
	c3.816,3.816,10.004,3.816,13.821,0l5.895-5.895L198.794,120.9z"/>
</svg>