<!DOCTYPE svg PUBLIC "-//W3C//DTD SVG 1.1//EN" "http://www.w3.org/Graphics/SVG/1.1/DTD/svg11.dtd">
<!-- Uploaded to: SVG Repo, www.svgrepo.com, Transformed by: SVG Repo Mixer Tools -->
<svg height="800px" width="800px" version="1.1" id="Layer_1" xmlns="http://www.w3.org/2000/svg" xmlns:xlink="http://www.w3.org/1999/xlink" viewBox="0 0 512 512" xml:space="preserve" fill="#000000">
<g id="SVGRepo_bgCarrier" stroke-width="0"/>
<g id="SVGRepo_tracerCarrier" stroke-linecap="round" stroke-linejoin="round"/>
<g id="SVGRepo_iconCarrier"> <path style="fill:#c6bebe;" d="M439.198,391.621l-176.745-88.868c-4.728-2.375-10.305-2.364-15.021,0.036l-174.7,88.868 c-5.582,2.839-9.097,8.571-9.097,14.833s3.515,11.995,9.097,14.833l174.701,88.868c2.371,1.206,4.957,1.81,7.546,1.81 c2.562,0,5.124-0.591,7.476-1.774l176.745-88.868c5.62-2.826,9.167-8.577,9.167-14.868S444.818,394.447,439.198,391.621z"/> <path style="fill:#fff0f2;" d="M255.999,301.04c-2.925-0.181-5.885,0.384-8.567,1.75l-174.7,88.867 c-5.582,2.839-9.097,8.571-9.097,14.833s3.515,11.995,9.097,14.833l174.701,88.868c2.371,1.206,4.957,1.81,7.546,1.81 c0.342,0,0.681-0.038,1.022-0.059V301.04H255.999z"/> <path style="fill:#ede9e3;" d="M439.198,241.13l-176.745-88.868c-4.728-2.375-10.305-2.364-15.021,0.035l-174.7,88.868 c-5.582,2.839-9.097,8.571-9.097,14.833s3.515,11.995,9.097,14.833l174.701,88.868c2.371,1.206,4.957,1.81,7.546,1.81 c2.562,0,5.124-0.591,7.476-1.774l176.745-88.868c5.62-2.826,9.167-8.577,9.167-14.868 C448.365,249.708,444.818,243.956,439.198,241.13z"/> <path style="fill:#fffdf5;" d="M255.999,150.549c-2.925-0.181-5.885,0.384-8.567,1.75l-174.7,88.867 c-5.582,2.839-9.097,8.571-9.097,14.833s3.515,11.995,9.097,14.833l174.701,88.868c2.371,1.206,4.957,1.81,7.546,1.81 c0.342,0,0.681-0.038,1.022-0.059V150.549H255.999z"/> <path style="fill:#9eadb7;" d="M439.198,90.64L262.454,1.773c-4.728-2.375-10.305-2.364-15.021,0.036L72.732,90.677 c-5.582,2.839-9.097,8.571-9.097,14.833s3.515,11.995,9.097,14.833l174.701,88.868c2.371,1.206,4.957,1.81,7.546,1.81 c2.562,0,5.124-0.591,7.476-1.774l176.745-88.868c5.62-2.826,9.167-8.577,9.167-14.868S444.818,93.466,439.198,90.64z"/> <path style="fill:#d6eaf5;" d="M255.999,0.059c-2.925-0.181-5.885,0.384-8.567,1.75l-174.7,88.868 c-5.582,2.839-9.097,8.571-9.097,14.833s3.515,11.995,9.097,14.833l174.701,88.868c2.371,1.206,4.957,1.81,7.546,1.81 c0.342,0,0.681-0.038,1.022-0.059V0.059H255.999z"/> </g>
</svg>