<?xml version="1.0" encoding="iso-8859-1"?>
<!-- Uploaded to: SVG Repo, www.svgrepo.com, Generator: SVG Repo Mixer Tools -->
<svg version="1.1" id="Layer_1" xmlns="http://www.w3.org/2000/svg" xmlns:xlink="http://www.w3.org/1999/xlink" 
	 viewBox="0 0 512 512" xml:space="preserve">
<path style="fill:#9B9AA5;" d="M308.587,289.757H203.411c-13.903,0-25.175,11.271-25.175,25.175v140.625
	c0,13.905,11.272,25.175,25.175,25.175h105.176c13.905,0,25.175-11.271,25.175-25.175V314.932
	C333.763,301.028,322.492,289.757,308.587,289.757z"/>
<path style="fill:#C6C5CA;" d="M255.291,289.757h-51.88c-13.903,0-25.175,11.271-25.175,25.175v140.625
	c0,13.905,11.272,25.175,25.175,25.175h51.88V289.757z"/>
<rect x="31.944" y="25.175" style="fill:#1D1D1F;" width="448.118" height="289.76"/>
<rect x="31.944" y="25.175" style="fill:#3E3E42;" width="223.343" height="289.76"/>
<path style="fill:#005A95;" d="M480.056,340.107H31.944c-13.903,0-25.175-11.271-25.175-25.175V25.175
	C6.769,11.271,18.04,0,31.944,0h448.112c13.905,0,25.175,11.271,25.175,25.175v289.757
	C505.231,328.837,493.961,340.107,480.056,340.107z M57.119,289.757h397.762V50.35H57.119V289.757z"/>
<path style="fill:#31AAEF;" d="M6.769,25.175v289.757c0,13.905,11.272,25.175,25.175,25.175h223.347v-50.35H57.119V50.35h198.172V0
	H31.944C18.04,0,6.769,11.271,6.769,25.175z"/>
<path style="fill:#1D1D1F;" d="M361.375,426.964l-210.321-1.057c-0.044,0-0.086,0-0.13,0c-13.844,0-25.102,11.188-25.172,25.049
	l-0.175,34.685c-0.034,6.676,2.587,13.093,7.284,17.837c4.697,4.745,11.087,7.431,17.764,7.464L360.947,512c0.043,0,0.084,0,0.126,0
	c6.632,0,12.997-2.617,17.712-7.285c4.744-4.697,7.429-11.087,7.463-17.765l0.173-34.686
	C386.492,438.361,375.278,427.033,361.375,426.964z"/>
<path style="fill:#3E3E42;" d="M255.291,426.43l-104.237-0.525c-0.044,0-0.086,0-0.13,0c-13.844,0-25.102,11.188-25.172,25.049
	l-0.175,34.685c-0.034,6.676,2.587,13.093,7.284,17.837c4.697,4.745,11.087,7.431,17.764,7.464l104.666,0.527V426.43z"/>
<g>
	<rect x="57.12" y="50.35" style="fill:#1D1D1F;" width="397.767" height="34.126"/>
	<rect x="57.12" y="50.35" style="fill:#1D1D1F;" width="198.168" height="34.126"/>
</g>
</svg>