<?xml version="1.0" encoding="iso-8859-1"?>
<!-- Uploaded to: SVG Repo, www.svgrepo.com, Generator: SVG Repo Mixer Tools -->
<svg height="800px" width="800px" version="1.1" id="Layer_1" xmlns="http://www.w3.org/2000/svg" xmlns:xlink="http://www.w3.org/1999/xlink" 
	 viewBox="0 0 512.001 512.001" xml:space="preserve">
<path style="fill:#1D1D1F;" d="M256,392.294c-36.405,0-70.631-14.177-96.374-39.919c-25.742-25.742-39.919-59.968-39.919-96.374
	s14.177-70.631,39.92-96.375c25.742-25.742,59.968-39.919,96.374-39.919s70.631,14.177,96.374,39.919
	c25.742,25.742,39.92,59.968,39.92,96.374s-14.178,70.631-39.92,96.375C326.632,378.118,292.405,392.294,256,392.294z M256,185.16
	c-18.923,0-36.711,7.369-50.091,20.749c-13.381,13.38-20.749,31.17-20.749,50.092s7.369,36.713,20.749,50.092
	c13.38,13.38,31.17,20.749,50.091,20.749c18.923,0,36.713-7.369,50.092-20.749c13.38-13.38,20.749-31.17,20.749-50.092
	s-7.369-36.713-20.749-50.092C292.713,192.528,274.923,185.16,256,185.16z"/>
<path style="fill:#3E3E42;" d="M256,326.842c-18.923,0-36.711-7.369-50.091-20.749c-13.38-13.38-20.749-31.17-20.749-50.092
	c0-18.923,7.369-36.711,20.749-50.092c13.38-13.38,31.17-20.749,50.091-20.749v-65.452c-36.405,0-70.631,14.177-96.374,39.919
	s-39.92,59.968-39.92,96.375c0,36.405,14.177,70.631,39.919,96.374s59.968,39.919,96.374,39.919v-65.451H256z"/>
<path style="fill:#0274BA;" d="M485.735,199.488h-93.304l65.975-65.976c10.257-10.257,10.257-26.886,0-37.143L415.63,53.592
	c-10.257-10.257-26.886-10.257-37.144,0l-65.973,65.977V26.265c0-14.506-11.76-26.265-26.266-26.265h-60.494
	c-14.506,0-26.265,11.759-26.265,26.265v93.303l-65.975-65.976c-10.257-10.257-26.886-10.257-37.144,0L53.593,96.37
	c-10.257,10.257-10.257,26.886,0,37.143l65.975,65.976H26.265C11.759,199.488,0,211.247,0,225.753v60.495
	c0,14.506,11.759,26.265,26.265,26.265h93.303l-65.975,65.976c-10.257,10.257-10.257,26.886,0,37.143l42.776,42.777
	c10.257,10.257,26.886,10.257,37.144,0l65.975-65.976v93.303c0,14.506,11.759,26.265,26.265,26.265h60.494
	c14.506,0,26.265-11.759,26.265-26.265v-93.304l65.976,65.976c10.257,10.257,26.886,10.257,37.144,0l42.776-42.777
	c10.257-10.257,10.257-26.886,0-37.143l-65.975-65.975h93.304c14.506,0,26.265-11.759,26.265-26.265v-60.495
	C512,211.247,500.241,199.488,485.735,199.488z M255.868,395.009c-76.155,0-137.89-61.735-137.89-137.89
	s61.735-137.89,137.89-137.89s137.89,61.735,137.89,137.89S332.021,395.009,255.868,395.009z"/>
<path style="fill:#2698DE;" d="M255.868,395.009c-76.155,0-137.89-61.735-137.89-137.89s61.735-137.89,137.89-137.89
	c0.044,0,0.088,0.001,0.132,0.001V0.001h-30.248c-14.506,0-26.265,11.759-26.265,26.265v93.303l-65.975-65.976
	c-10.257-10.257-26.886-10.257-37.144,0L53.593,96.37c-10.257,10.257-10.257,26.886,0,37.143l65.975,65.976H26.265
	C11.759,199.488,0,211.247,0,225.753v60.495c0,14.506,11.759,26.265,26.265,26.265h93.303l-65.975,65.976
	c-10.257,10.257-10.257,26.886,0,37.143l42.776,42.777c10.257,10.257,26.886,10.257,37.144,0l65.975-65.976v93.303
	c0,14.506,11.759,26.265,26.265,26.265H256V395.008C255.956,395.008,255.912,395.009,255.868,395.009z"/>
<path style="fill:#4EA4D9;" d="M256,456.051c-53.436,0-103.673-20.809-141.457-58.593S55.95,309.437,55.95,256.002
	s20.809-103.673,58.594-141.458c37.784-37.784,88.021-58.593,141.457-58.593s103.673,20.809,141.457,58.593
	c37.785,37.784,58.595,88.021,58.595,141.457s-20.81,103.673-58.595,141.458C359.673,435.242,309.436,456.051,256,456.051z
	 M256,152.022c-27.773,0-53.885,10.815-73.525,30.454s-30.456,45.751-30.456,73.525c0,27.773,10.815,53.885,30.456,73.525
	c19.639,19.639,45.751,30.454,73.525,30.454c27.775,0,53.885-10.815,73.525-30.454c19.639-19.639,30.456-45.751,30.456-73.525
	c0-27.773-10.816-53.885-30.456-73.525S283.775,152.022,256,152.022z"/>
<path style="fill:#9CD8FF;" d="M114.543,114.544c-37.784,37.784-58.594,88.021-58.594,141.457s20.809,103.673,58.593,141.457
	c37.785,37.785,88.021,58.593,141.457,58.593l0,0V359.98l0,0c-27.773,0-53.885-10.815-73.525-30.454
	c-19.639-19.639-30.456-45.751-30.456-73.525c0-27.773,10.815-53.885,30.456-73.525c19.639-19.639,45.751-30.454,73.525-30.454l0,0
	V55.951l0,0C202.564,55.951,152.327,76.759,114.543,114.544z"/>
<g>
	<circle style="fill:#1D1D1F;" cx="256" cy="103.983" r="16.775"/>
	<circle style="fill:#1D1D1F;" cx="256" cy="408.018" r="16.775"/>
	<circle style="fill:#1D1D1F;" cx="408.018" cy="256.001" r="16.775"/>
</g>
<circle style="fill:#3E3E42;" cx="103.982" cy="256.001" r="16.775"/>
<circle style="fill:#1D1D1F;" cx="363.486" cy="148.514" r="16.775"/>
<circle style="fill:#3E3E42;" cx="148.514" cy="363.498" r="16.775"/>
<circle style="fill:#1D1D1F;" cx="363.486" cy="363.498" r="16.775"/>
<g>
	<circle style="fill:#3E3E42;" cx="148.514" cy="148.514" r="16.775"/>
	<path style="fill:#3E3E42;" d="M239.225,103.985c0,9.265,7.51,16.775,16.775,16.775V87.21
		C246.735,87.21,239.225,94.721,239.225,103.985z"/>
	<path style="fill:#3E3E42;" d="M239.225,408.016c0,9.265,7.51,16.775,16.775,16.775V391.24
		C246.735,391.241,239.225,398.751,239.225,408.016z"/>
</g>
</svg>