<?xml version="1.0" encoding="iso-8859-1"?>
<!-- Uploaded to: SVG Repo, www.svgrepo.com, Generator: SVG Repo Mixer Tools -->
<svg height="800px" width="800px" version="1.1" id="Layer_1" xmlns="http://www.w3.org/2000/svg" xmlns:xlink="http://www.w3.org/1999/xlink" 
	 viewBox="0 0 512 512" xml:space="preserve">
<path style="fill:#005B9A;" d="M464.579,0H47.422C37.271,0,29.041,8.23,29.041,18.381v266.631
	c0,80.433,47.999,152.331,122.286,183.168l98.277,40.797c2.255,0.936,5.734,3.024,5.734,3.024l105.742-43.701
	c74.039-30.929,121.879-102.76,121.879-182.998V18.381C482.96,8.23,474.731,0,464.579,0z"/>
<path style="fill:#31AAEF;" d="M255.338,0H47.422C37.271,0,29.041,8.23,29.041,18.381v266.631
	c0,80.433,47.999,152.331,122.286,183.168l98.277,40.797c1.364,0.567,4.299,0.94,5.734,1.163L255.338,0L255.338,0z"/>
<path style="fill:#F7DC4D;" d="M255.338,243.981V0H47.422C37.271,0,29.041,8.23,29.041,18.381v225.601h226.297V243.981z"/>
<path style="fill:#DF871E;" d="M255.338,243.768V512l105.742-43.701c74.039-30.929,121.879-102.76,121.879-182.998v-41.532H255.338
	V243.768z"/>
<path style="fill:#31AAEF;" d="M464.579,0H47.422C37.271,0,29.041,8.229,29.041,18.381v266.631
	c0,80.433,47.999,152.331,122.286,183.168L255.338,512l105.742-43.701c74.039-30.929,121.879-102.76,121.879-182.998V18.381
	C482.96,8.229,474.731,0,464.579,0z M436.887,285.3c0,61.598-36.726,116.742-93.565,140.485l-87.984,36.217l-86.346-36.376
	c-57.027-23.674-93.877-78.867-93.877-140.615V46.074h361.773L436.887,285.3L436.887,285.3z"/>
<path style="fill:#D4F3FF;" d="M255.338,462.002l-86.346-36.376c-57.027-23.674-93.877-78.867-93.877-140.615V46.074h180.223V0
	H47.422C37.271,0,29.041,8.229,29.041,18.381v266.631c0,80.433,47.999,152.331,122.286,183.168L255.338,512V462.002z"/>
</svg>