<?xml version="1.0" encoding="iso-8859-1"?>
<!-- Uploaded to: SVG Repo, www.svgrepo.com, Generator: SVG Repo Mixer Tools -->
<svg height="800px" width="800px" version="1.1" id="Layer_1" xmlns="http://www.w3.org/2000/svg" xmlns:xlink="http://www.w3.org/1999/xlink" 
	 viewBox="0 0 512 512" xml:space="preserve">
<path style="fill:#C6C5CA;" d="M507.837,244.913c-1.147-1.312-28.596-32.502-72.998-63.93
	c-59.487-42.105-121.329-64.362-178.84-64.362c-57.51,0-119.352,22.256-178.838,64.362c-44.402,31.428-71.852,62.618-72.998,63.93
	c-5.549,6.35-5.549,15.824,0,22.174c1.147,1.312,28.596,32.502,72.998,63.93c59.487,42.105,121.329,64.362,178.838,64.362
	c57.511,0,119.353-22.256,178.84-64.362c44.402-31.428,71.852-62.618,72.998-63.93C513.387,260.738,513.387,251.263,507.837,244.913
	z"/>
<path style="fill:#E1E1E3;" d="M255.999,116.62L255.999,116.62c-57.511,0-119.353,22.256-178.84,64.362
	c-44.402,31.428-71.852,62.618-72.998,63.93c-5.549,6.35-5.549,15.824,0,22.174c1.147,1.312,28.596,32.502,72.998,63.93
	c59.487,42.105,121.329,64.362,178.838,64.362l0,0V116.62H255.999z"/>
<path style="fill:#3A7545;" d="M255.999,160.759c-52.516,0-95.241,42.726-95.241,95.242s42.724,95.242,95.241,95.242
	s95.242-42.726,95.242-95.242S308.516,160.759,255.999,160.759z"/>
<path style="fill:#8DC652;" d="M255.999,160.759L255.999,160.759c-52.516,0-95.242,42.726-95.242,95.242
	s42.724,95.242,95.241,95.242l0,0V160.759H255.999z"/>
<path style="fill:#252426;" d="M255.999,214.787c-22.724,0-41.212,18.488-41.212,41.212s18.488,41.212,41.212,41.212
	s41.212-18.488,41.212-41.212S278.724,214.787,255.999,214.787z"/>
<path style="fill:#39383B;" d="M255.999,214.787L255.999,214.787c-22.725,0-41.212,18.488-41.212,41.212
	s18.488,41.212,41.212,41.212l0,0V214.787z"/>
</svg>